<svg width="240.235" height="98.954" viewBox="0 0 240.235 98.954" xmlns="http://www.w3.org/2000/svg"><g id="svgGroup" stroke-linecap="round" fill-rule="evenodd" font-size="9pt" stroke="#000000" stroke-width="0.5mm" fill="#000000" style="stroke:#000000;stroke-width:0.5mm;fill:#000000"><path d="M 64.734 1.266 L 64.969 1.266 A 1.274 1.274 0 0 1 65.346 1.337 Q 66.144 1.594 67.828 2.766 A 9.925 9.925 0 0 1 68.708 3.447 Q 69.559 4.195 69.843 4.893 A 1.812 1.812 0 0 1 69.984 5.578 Q 69.984 7.406 57.984 33.891 A 5172.2 5172.2 0 0 1 55.144 40.148 Q 45.765 60.776 44.227 63.586 A 369.581 369.581 0 0 1 43.51 64.889 Q 42.603 66.53 42.09 67.409 A 30.501 30.501 0 0 1 41.813 67.875 Q 41.278 68.753 40.433 69.787 A 27.161 27.161 0 0 1 40.031 70.266 A 7.084 7.084 0 0 1 38.231 71.874 A 6.047 6.047 0 0 1 35.016 72.75 A 8.303 8.303 0 0 0 33.935 72.817 Q 33.362 72.892 32.867 73.052 A 5.213 5.213 0 0 0 32.859 73.055 A 26.345 26.345 0 0 1 32.534 73.158 Q 31.923 73.348 31.753 73.359 A 0.299 0.299 0 0 1 31.734 73.359 Q 30.234 73.359 30.234 72.656 A 0.393 0.393 0 0 1 30.248 72.573 Q 30.298 72.372 30.523 71.789 A 37.044 37.044 0 0 1 30.633 71.508 Q 30.98 70.629 38.874 53.962 A 13364.093 13364.093 0 0 1 41.344 48.75 Q 30.328 48.328 21.984 48.094 Q 13.969 58.172 7.453 69.188 Q 6.763 70.528 6.142 71.182 A 3.348 3.348 0 0 1 5.953 71.367 A 2.353 2.353 0 0 1 4.968 71.887 Q 4.611 71.982 4.19 71.997 A 4.503 4.503 0 0 1 4.031 72 A 2.828 2.828 0 0 1 2.97 71.779 Q 2.553 71.611 2.118 71.315 A 7.146 7.146 0 0 1 1.406 70.758 A 4.612 4.612 0 0 1 0.549 69.77 A 3.481 3.481 0 0 1 0 67.875 A 7.585 7.585 0 0 1 0.579 65.313 Q 2.646 59.824 12.094 47.813 A 184.619 184.619 0 0 0 10.113 47.822 Q 6.136 47.865 4.898 48.094 A 50.565 50.565 0 0 1 4.366 48.189 Q 3.559 48.329 3.166 48.364 A 2.522 2.522 0 0 1 2.953 48.375 A 1.048 1.048 0 0 1 1.952 47.746 Q 1.718 47.279 1.691 46.464 A 6.629 6.629 0 0 1 1.688 46.242 A 3.626 3.626 0 0 1 2.525 43.949 Q 2.946 43.417 3.578 42.928 A 8.802 8.802 0 0 1 4.195 42.492 A 9.227 9.227 0 0 1 6.794 41.366 Q 7.978 41.044 9.386 40.933 A 19.614 19.614 0 0 1 10.922 40.875 A 7.759 7.759 0 0 0 11.115 40.872 Q 11.458 40.864 12.094 40.828 Q 15 40.688 18.047 40.594 Q 28.266 28.594 39.422 18.328 A 150.794 150.794 0 0 1 46.102 12.512 Q 52.777 7.059 58.172 4.227 A 41.751 41.751 0 0 1 58.734 3.938 Q 60.047 3.281 60.82 3.305 Q 61.464 3.324 62.318 4.138 A 7.728 7.728 0 0 1 62.672 4.5 A 35.187 35.187 0 0 1 63.147 3.484 Q 64.073 1.586 64.576 1.312 A 0.333 0.333 0 0 1 64.734 1.266 Z M 59.391 11.109 Q 42.281 24.094 28.125 40.594 Q 36.422 40.781 44.906 41.297 A 5221.503 5221.503 0 0 1 50.942 28.636 Q 53.306 23.696 55.418 19.314 A 2476.912 2476.912 0 0 1 59.391 11.109 Z" id="0" vector-effect="non-scaling-stroke"/><path d="M 73.781 41.766 L 71.813 44.719 Q 82.875 32.156 90.656 32.156 A 5.265 5.265 0 0 1 92.154 32.36 A 4.158 4.158 0 0 1 93.82 33.305 A 3.81 3.81 0 0 1 95.055 36 A 5.156 5.156 0 0 1 95.063 36.281 A 4.229 4.229 0 0 1 94.9 37.349 Q 94.412 39.182 92.461 42.399 Q 90.469 45.682 88.711 48.183 A 63.991 63.991 0 0 1 87.656 49.641 A 4.917 4.917 0 0 1 86.899 50.428 Q 86.026 51.141 85.008 51.141 A 3.237 3.237 0 0 1 83.993 50.989 A 2.606 2.606 0 0 1 82.711 50.063 A 4.018 4.018 0 0 1 81.895 47.734 A 5.013 5.013 0 0 1 81.891 47.531 Q 81.891 44.422 85.096 40.533 A 26.511 26.511 0 0 1 85.359 40.219 L 85.266 40.125 A 2.316 2.316 0 0 0 84.449 40.422 Q 82.476 41.475 77.602 46.219 A 326.79 326.79 0 0 0 73.271 50.509 Q 71.149 52.652 69.306 54.606 A 176.853 176.853 0 0 0 67.195 56.883 A 118.571 118.571 0 0 0 63.303 61.395 Q 61.36 63.759 59.287 66.486 A 212.045 212.045 0 0 0 57.891 68.344 Q 56.438 70.359 55.43 70.359 A 4.34 4.34 0 0 1 54.736 70.298 Q 53.902 70.162 52.758 69.727 Q 51.094 69.094 50.742 68.813 Q 50.456 68.583 50.403 68.105 A 2.091 2.091 0 0 1 50.391 67.875 Q 50.391 67.365 50.617 66.727 A 6.066 6.066 0 0 1 50.766 66.352 A 8.954 8.954 0 0 1 51.027 65.806 Q 51.424 65.036 52.148 63.891 Q 53.156 62.297 55.195 58.734 A 309.819 309.819 0 0 1 56.357 56.725 Q 58.313 53.367 61.547 47.953 Q 65.24 41.771 66.389 39.783 A 55.751 55.751 0 0 0 66.703 39.234 Q 68.145 36.73 69.157 35.331 A 15.554 15.554 0 0 1 69.609 34.734 A 6.364 6.364 0 0 1 72.445 32.731 Q 73.531 32.324 74.886 32.165 A 15.884 15.884 0 0 1 76.734 32.063 Q 77.859 32.063 77.859 33.469 A 4.36 4.36 0 0 1 77.637 34.709 Q 77.032 36.688 74.776 40.242 A 75.457 75.457 0 0 1 73.781 41.766 Z" id="1" vector-effect="non-scaling-stroke"/><path d="M 95.156 60.891 L 95.109 61.641 A 2.665 2.665 0 0 0 95.932 63.59 A 3.47 3.47 0 0 0 96 63.656 A 4.613 4.613 0 0 0 96.483 64.059 Q 97.071 64.48 97.591 64.499 A 1.346 1.346 0 0 0 97.641 64.5 A 32.068 32.068 0 0 0 102.631 64.129 A 23.942 23.942 0 0 0 107.602 62.813 A 21.344 21.344 0 0 0 109.075 62.18 Q 111.384 61.074 111.831 59.968 A 1.407 1.407 0 0 0 111.938 59.438 A 0.891 0.891 0 0 0 111.703 58.853 Q 111.33 58.414 110.367 58.055 A 17.74 17.74 0 0 0 109.447 57.744 Q 108.384 57.414 106.774 57.011 A 109.652 109.652 0 0 0 105.07 56.602 A 244.535 244.535 0 0 1 103.335 56.192 Q 100.922 55.611 99.656 55.242 A 39.421 39.421 0 0 1 98.67 54.942 Q 97.661 54.618 96.984 54.328 A 9.328 9.328 0 0 1 95.862 53.75 A 12.148 12.148 0 0 1 94.969 53.156 A 5.033 5.033 0 0 1 92.825 49.506 A 7.602 7.602 0 0 1 92.766 48.539 A 8.933 8.933 0 0 1 93.632 44.767 A 12.801 12.801 0 0 1 95.039 42.445 A 20.901 20.901 0 0 1 100.103 37.678 A 23.89 23.89 0 0 1 100.734 37.266 A 49.431 49.431 0 0 1 108.078 33.475 A 53.069 53.069 0 0 1 108.094 33.469 A 57.096 57.096 0 0 1 112.714 31.763 Q 115.047 31.023 117.104 30.641 A 22.382 22.382 0 0 1 121.172 30.234 A 18.563 18.563 0 0 1 123.258 30.342 Q 126.642 30.727 127.594 32.484 A 3.955 3.955 0 0 1 127.945 33.785 A 4.827 4.827 0 0 1 127.969 34.266 L 127.969 34.594 A 9.461 9.461 0 0 1 127.855 36.108 Q 127.724 36.913 127.443 37.565 A 4.503 4.503 0 0 1 126.914 38.484 A 6.573 6.573 0 0 1 125.856 39.581 Q 124.936 40.348 123.586 41.016 A 17.301 17.301 0 0 1 122.397 41.553 Q 120.942 42.141 119.977 42.141 Q 118.879 42.141 118.446 42.014 A 0.832 0.832 0 0 1 118.289 41.953 Q 117.938 41.766 117.703 41.461 Q 117.469 41.156 117.117 41.016 A 0.505 0.505 0 0 1 116.827 40.709 Q 116.789 40.609 116.775 40.482 A 1.501 1.501 0 0 1 116.766 40.313 A 1.508 1.508 0 0 1 116.894 39.717 Q 116.982 39.512 117.129 39.303 A 2.977 2.977 0 0 1 117.234 39.164 A 3.728 3.728 0 0 0 117.726 38.37 A 3.27 3.27 0 0 0 117.891 37.922 A 19.052 19.052 0 0 0 113.926 38.543 A 24.227 24.227 0 0 0 111.422 39.352 A 35.627 35.627 0 0 0 108.469 40.627 Q 107.012 41.34 105.794 42.129 A 21.584 21.584 0 0 0 105.633 42.234 A 42.147 42.147 0 0 0 103.742 43.554 Q 102.855 44.213 102.118 44.845 A 22.279 22.279 0 0 0 101.625 45.281 Q 100.295 46.494 100.075 47.168 A 0.798 0.798 0 0 0 100.031 47.414 Q 100.031 48.094 102.188 48.516 Q 111.891 50.438 114.938 51.844 A 16.076 16.076 0 0 1 116.649 52.753 Q 118.348 53.803 119.156 55.031 A 9.198 9.198 0 0 1 119.799 56.165 Q 120.328 57.289 120.328 58.266 A 7.695 7.695 0 0 1 119.172 62.279 A 10.914 10.914 0 0 1 117.938 63.938 A 18.231 18.231 0 0 1 113.102 67.746 A 21.387 21.387 0 0 1 112.031 68.297 Q 104.484 72 98.883 72 Q 94.487 72 92.228 70.947 A 5.286 5.286 0 0 1 91.148 70.289 A 6.546 6.546 0 0 1 89.934 69.038 A 4.664 4.664 0 0 1 89.016 66.234 A 8.275 8.275 0 0 1 90.211 61.899 A 5.229 5.229 0 0 1 90.975 60.897 A 3.148 3.148 0 0 1 93.281 59.906 A 5.348 5.348 0 0 1 93.913 59.94 Q 95.156 60.089 95.156 60.891 Z" id="2" vector-effect="non-scaling-stroke"/><path d="M 127.781 72 L 127.453 72 A 5.937 5.937 0 0 1 124.965 71.437 A 7.93 7.93 0 0 1 123.844 70.805 A 3.726 3.726 0 0 1 122.391 68.854 Q 122.165 68.197 122.095 67.383 A 8.953 8.953 0 0 1 122.063 66.609 A 16.865 16.865 0 0 1 123.959 58.9 A 20.241 20.241 0 0 1 124.453 57.984 A 147.055 147.055 0 0 1 124.953 57.132 Q 125.727 55.819 127.061 53.599 A 1185.089 1185.089 0 0 1 127.383 53.063 A 211.044 211.044 0 0 0 130.34 47.991 A 183.681 183.681 0 0 0 131.25 46.359 A 58.905 58.905 0 0 0 132.907 43.664 Q 133.744 42.22 134.604 40.579 A 96.11 96.11 0 0 0 134.719 40.359 A 160.369 160.369 0 0 1 135.557 38.77 Q 136.734 36.568 137.438 35.461 A 6.681 6.681 0 0 1 137.843 34.886 Q 138.296 34.316 138.726 34.107 A 1.119 1.119 0 0 1 139.219 33.984 Q 139.927 33.984 140.983 34.728 A 9.537 9.537 0 0 1 141.398 35.039 A 4.05 4.05 0 0 1 142.159 35.811 A 2.861 2.861 0 0 1 142.734 37.547 A 3.061 3.061 0 0 1 142.523 38.42 Q 141.595 41.07 136.594 50.156 Q 131.579 59.268 130.659 61.97 A 3.148 3.148 0 0 0 130.453 62.859 A 0.54 0.54 0 0 0 130.472 63.008 Q 130.519 63.174 130.689 63.218 A 0.552 0.552 0 0 0 130.828 63.234 A 1.934 1.934 0 0 0 131.514 63.069 Q 133.025 62.464 136.43 59.649 A 77.791 77.791 0 0 0 139.81 56.672 Q 141.638 54.973 143.605 52.962 A 148.434 148.434 0 0 0 146.016 50.438 A 111.659 111.659 0 0 0 150.054 45.913 Q 151.972 43.636 153.504 41.523 A 55.557 55.557 0 0 0 155.203 39.047 Q 155.625 38.391 155.883 38.039 Q 156.113 37.725 156.457 37.223 A 60.798 60.798 0 0 0 156.539 37.102 A 29.849 29.849 0 0 1 156.73 36.825 Q 156.938 36.525 157.1 36.311 A 8.535 8.535 0 0 1 157.195 36.188 A 321.113 321.113 0 0 1 157.402 35.925 Q 157.585 35.692 157.805 35.414 A 7.005 7.005 0 0 1 158.038 35.133 Q 158.152 35.003 158.258 34.899 A 2.887 2.887 0 0 1 158.438 34.734 Q 158.719 34.5 159.047 34.266 A 1.881 1.881 0 0 1 159.538 33.937 A 1.581 1.581 0 0 1 160.195 33.797 A 4.108 4.108 0 0 1 160.553 33.815 Q 161.15 33.867 162.117 34.078 A 10.505 10.505 0 0 1 162.564 34.185 Q 163.263 34.37 163.542 34.574 A 0.614 0.614 0 0 1 163.664 34.688 Q 163.922 35.016 164.203 35.297 A 2.573 2.573 0 0 1 164.435 35.589 Q 164.542 35.748 164.601 35.9 A 0.99 0.99 0 0 1 164.672 36.258 A 1.433 1.433 0 0 1 164.635 36.564 Q 164.568 36.871 164.375 37.273 A 6.004 6.004 0 0 1 164.297 37.43 A 10.018 10.018 0 0 1 164.147 37.705 Q 163.424 38.994 159.938 44.859 A 1005.321 1005.321 0 0 0 154.535 54.082 Q 147.9 65.561 144.555 72.229 A 123.085 123.085 0 0 0 143.813 73.734 A 354.956 354.956 0 0 0 147.738 70.374 Q 154.172 64.793 163.875 55.969 A 2.206 2.206 0 0 1 164.245 55.72 Q 164.492 55.591 164.74 55.558 A 1.27 1.27 0 0 1 164.906 55.547 A 0.957 0.957 0 0 1 165.73 56.067 Q 166.247 56.89 166.339 59.012 A 22.743 22.743 0 0 1 166.359 60 A 5.743 5.743 0 0 1 166.334 60.566 Q 166.278 61.129 166.1 61.46 A 1.001 1.001 0 0 1 165.891 61.734 A 214.941 214.941 0 0 0 139.5 85.828 Q 139.266 86.063 138.07 88.195 A 107.125 107.125 0 0 1 135.516 92.508 Q 134.156 94.688 132.164 96.656 A 14.998 14.998 0 0 1 131.209 97.528 Q 130.235 98.336 129.447 98.633 A 2.666 2.666 0 0 1 128.836 98.789 Q 127.541 98.948 127.149 98.953 A 1.921 1.921 0 0 1 127.125 98.953 A 6.145 6.145 0 0 1 125.418 98.737 Q 123.505 98.183 122.996 96.208 A 6.489 6.489 0 0 1 122.813 94.594 A 12.379 12.379 0 0 1 123.497 90.697 Q 124.595 87.391 127.455 83.507 A 45.501 45.501 0 0 1 128.109 82.641 A 45.487 45.487 0 0 1 130.07 80.309 Q 131.458 78.76 133.172 77.086 Q 136.219 74.109 136.5 73.711 A 4.996 4.996 0 0 0 136.671 73.418 Q 137.486 71.967 141.914 63.615 A 5530.114 5530.114 0 0 0 143.531 60.563 Q 139.866 64.571 136.637 67.352 A 51.235 51.235 0 0 1 135.188 68.555 Q 131.344 71.625 127.781 72 Z" id="3" vector-effect="non-scaling-stroke"/><path d="M 190.594 62.672 L 190.594 63.047 Q 190.594 64.915 191.923 64.967 A 1.974 1.974 0 0 0 192 64.969 Q 193.331 64.969 195.186 63.794 A 14.12 14.12 0 0 0 195.398 63.656 A 23.675 23.675 0 0 0 197.696 61.942 A 19.874 19.874 0 0 0 198.891 60.844 A 145.575 145.575 0 0 0 201.914 57.727 Q 203.438 56.109 203.766 55.828 A 1.145 1.145 0 0 1 204.305 55.574 A 1.608 1.608 0 0 1 204.609 55.547 A 0.9 0.9 0 0 1 205.403 55.966 Q 205.509 56.124 205.582 56.343 A 2.403 2.403 0 0 1 205.641 56.555 Q 205.852 57.465 205.873 59.026 A 26.048 26.048 0 0 1 205.875 59.367 Q 205.875 61.172 205.594 61.734 A 10.52 10.52 0 0 1 204.571 63.302 Q 203.351 64.883 201.194 66.794 A 52.053 52.053 0 0 1 199.617 68.133 A 21.916 21.916 0 0 1 196.78 70.123 Q 193.711 71.906 190.875 71.906 A 12.105 12.105 0 0 1 188.243 71.646 Q 184.533 70.816 183.952 67.336 A 8.405 8.405 0 0 1 183.844 65.953 A 13.096 13.096 0 0 1 184.118 63.414 Q 184.723 60.375 186.656 56.25 A 67.213 67.213 0 0 1 182.461 61.199 A 52.087 52.087 0 0 1 178.922 64.641 Q 172.658 70.101 167.805 70.885 A 9.948 9.948 0 0 1 166.219 71.016 Q 163.219 71.016 161.789 68.906 Q 160.359 66.797 160.359 62.836 Q 160.359 58.875 163.453 53.344 A 42.46 42.46 0 0 1 171.164 43.383 A 45.399 45.399 0 0 1 181.406 35.977 Q 185.933 33.581 189.882 33.114 A 16.005 16.005 0 0 1 191.766 33 A 3.136 3.136 0 0 1 192.884 33.226 Q 193.811 33.581 194.896 34.491 A 13.474 13.474 0 0 1 195.281 34.828 Q 196.641 32.672 200.297 26.203 Q 209.485 10.715 213.692 4.888 A 33.97 33.97 0 0 1 215.484 2.578 A 6.248 6.248 0 0 1 218.911 0.333 Q 220.126 0 221.625 0 Q 222.516 0 223.031 0.563 A 2.368 2.368 0 0 1 223.325 0.952 Q 223.547 1.326 223.547 1.711 Q 223.547 2.221 222.853 3.479 A 19.41 19.41 0 0 1 222.633 3.867 Q 221.886 5.15 219.56 8.904 A 1178.019 1178.019 0 0 1 218.438 10.711 A 1992.424 1992.424 0 0 0 216.888 13.206 Q 215.383 15.632 214.265 17.453 A 551.53 551.53 0 0 0 213.328 18.984 A 649.767 649.767 0 0 0 208.295 27.299 Q 201.176 39.27 196.641 48.234 A 250.209 250.209 0 0 0 194.586 52.384 Q 190.815 60.194 190.606 62.429 A 2.621 2.621 0 0 0 190.594 62.672 Z M 192.422 39.234 A 29.149 29.149 0 0 0 181.699 44.102 A 34.752 34.752 0 0 0 179.859 45.516 A 43.693 43.693 0 0 0 175.33 49.785 Q 173.095 52.234 171.564 54.791 A 26.433 26.433 0 0 0 171.141 55.524 Q 168.843 59.655 168.362 61.487 A 3.303 3.303 0 0 0 168.234 62.297 Q 168.234 63.604 168.703 63.807 A 0.468 0.468 0 0 0 168.891 63.844 Q 171.47 63.844 181.029 53.277 A 238.473 238.473 0 0 0 182.813 51.281 A 140.639 140.639 0 0 0 188.575 44.424 A 112.133 112.133 0 0 0 192.422 39.234 Z" id="4" vector-effect="non-scaling-stroke"/><path d="M 207.422 60.891 L 207.375 61.641 A 2.665 2.665 0 0 0 208.197 63.59 A 3.47 3.47 0 0 0 208.266 63.656 A 4.613 4.613 0 0 0 208.749 64.059 Q 209.336 64.48 209.857 64.499 A 1.346 1.346 0 0 0 209.906 64.5 A 32.068 32.068 0 0 0 214.896 64.129 A 23.942 23.942 0 0 0 219.867 62.813 A 21.344 21.344 0 0 0 221.341 62.18 Q 223.65 61.074 224.096 59.968 A 1.407 1.407 0 0 0 224.203 59.438 A 0.891 0.891 0 0 0 223.968 58.853 Q 223.596 58.414 222.633 58.055 A 17.74 17.74 0 0 0 221.713 57.744 Q 220.65 57.414 219.04 57.011 A 109.652 109.652 0 0 0 217.336 56.602 A 244.535 244.535 0 0 1 215.6 56.192 Q 213.188 55.611 211.922 55.242 A 39.421 39.421 0 0 1 210.936 54.942 Q 209.927 54.618 209.25 54.328 A 9.328 9.328 0 0 1 208.128 53.75 A 12.148 12.148 0 0 1 207.234 53.156 A 5.033 5.033 0 0 1 205.091 49.506 A 7.602 7.602 0 0 1 205.031 48.539 A 8.933 8.933 0 0 1 205.897 44.767 A 12.801 12.801 0 0 1 207.305 42.445 A 20.901 20.901 0 0 1 212.369 37.678 A 23.89 23.89 0 0 1 213 37.266 A 49.431 49.431 0 0 1 220.344 33.475 A 53.069 53.069 0 0 1 220.359 33.469 A 57.096 57.096 0 0 1 224.98 31.763 Q 227.313 31.023 229.37 30.641 A 22.382 22.382 0 0 1 233.438 30.234 A 18.563 18.563 0 0 1 235.523 30.342 Q 238.907 30.727 239.859 32.484 A 3.955 3.955 0 0 1 240.211 33.785 A 4.827 4.827 0 0 1 240.234 34.266 L 240.234 34.594 A 9.461 9.461 0 0 1 240.121 36.108 Q 239.99 36.913 239.709 37.565 A 4.503 4.503 0 0 1 239.18 38.484 A 6.573 6.573 0 0 1 238.122 39.581 Q 237.201 40.348 235.852 41.016 A 17.301 17.301 0 0 1 234.663 41.553 Q 233.208 42.141 232.242 42.141 Q 231.144 42.141 230.711 42.014 A 0.832 0.832 0 0 1 230.555 41.953 Q 230.203 41.766 229.969 41.461 Q 229.734 41.156 229.383 41.016 A 0.505 0.505 0 0 1 229.093 40.709 Q 229.055 40.609 229.04 40.482 A 1.501 1.501 0 0 1 229.031 40.313 A 1.508 1.508 0 0 1 229.16 39.717 Q 229.247 39.512 229.395 39.303 A 2.977 2.977 0 0 1 229.5 39.164 A 3.728 3.728 0 0 0 229.992 38.37 A 3.27 3.27 0 0 0 230.156 37.922 A 19.052 19.052 0 0 0 226.192 38.543 A 24.227 24.227 0 0 0 223.688 39.352 A 35.627 35.627 0 0 0 220.735 40.627 Q 219.278 41.34 218.06 42.129 A 21.584 21.584 0 0 0 217.898 42.234 A 42.147 42.147 0 0 0 216.008 43.554 Q 215.12 44.213 214.384 44.845 A 22.279 22.279 0 0 0 213.891 45.281 Q 212.561 46.494 212.341 47.168 A 0.798 0.798 0 0 0 212.297 47.414 Q 212.297 48.094 214.453 48.516 Q 224.156 50.438 227.203 51.844 A 16.076 16.076 0 0 1 228.915 52.753 Q 230.614 53.803 231.422 55.031 A 9.198 9.198 0 0 1 232.065 56.165 Q 232.594 57.289 232.594 58.266 A 7.695 7.695 0 0 1 231.438 62.279 A 10.914 10.914 0 0 1 230.203 63.938 A 18.231 18.231 0 0 1 225.368 67.746 A 21.387 21.387 0 0 1 224.297 68.297 Q 216.75 72 211.148 72 Q 206.753 72 204.493 70.947 A 5.286 5.286 0 0 1 203.414 70.289 A 6.546 6.546 0 0 1 202.2 69.038 A 4.664 4.664 0 0 1 201.281 66.234 A 8.275 8.275 0 0 1 202.477 61.899 A 5.229 5.229 0 0 1 203.241 60.897 A 3.148 3.148 0 0 1 205.547 59.906 A 5.348 5.348 0 0 1 206.178 59.94 Q 207.422 60.089 207.422 60.891 Z" id="5" vector-effect="non-scaling-stroke"/></g></svg>